<svg width="371" height="172" viewBox="0 0 371 172" fill="none" xmlns="http://www.w3.org/2000/svg">
<path d="M3.25156 71.6762C2.52022 71.6762 1.92155 71.4435 1.45629 70.9782C0.990649 70.5126 0.757812 69.9143 0.757812 69.1826V4.34956C0.757812 3.61822 0.990649 3.01954 1.45629 2.55428C1.92155 2.08865 2.52022 1.85596 3.25156 1.85596H16.1182C16.8499 1.85596 17.4482 2.08865 17.9138 2.55428C18.3791 3.01954 18.6119 3.61822 18.6119 4.34956V28.3879H43.2484V4.34956C43.2484 3.61822 43.4813 3.01954 43.9469 2.55428C44.4121 2.08865 45.0108 1.85596 45.7422 1.85596H58.6092C59.3405 1.85596 59.9388 2.08865 60.4044 2.55428C60.8697 3.01954 61.1025 3.61822 61.1025 4.34956V69.1826C61.1025 69.9143 60.8697 70.5126 60.4044 70.9782C59.9388 71.4435 59.3405 71.6762 58.6092 71.6762H45.7422C45.0108 71.6762 44.4121 71.4435 43.9469 70.9782C43.4813 70.5126 43.2484 69.9143 43.2484 69.1826V44.3464H18.6119V69.1826C18.6119 69.9143 18.3791 70.5126 17.9138 70.9782C17.4482 71.4435 16.8499 71.6762 16.1182 71.6762H3.25156Z" fill="#FEFEFE"/>
<path d="M155.26 72.6736C148.943 72.6736 143.54 71.6428 139.052 69.5814C134.563 67.5201 131.072 64.4946 128.578 60.505C126.085 56.5153 124.705 51.5611 124.439 45.6431C124.373 42.917 124.339 39.991 124.339 36.8661C124.339 33.7408 124.373 30.748 124.439 27.8888C124.705 22.1039 126.102 17.1996 128.628 13.1767C131.155 9.15378 134.68 6.09504 139.201 4.00043C143.723 1.90581 149.076 0.858398 155.26 0.858398C159.649 0.858398 163.705 1.40707 167.429 2.50426C171.152 3.60146 174.411 5.19725 177.204 7.29186C179.996 9.38648 182.174 11.9135 183.737 14.8725C185.299 17.8315 186.114 21.1729 186.18 24.8965C186.247 25.4948 186.064 25.9938 185.632 26.3929C185.2 26.7917 184.684 26.9912 184.086 26.9912H170.62C169.756 26.9912 169.091 26.8083 168.626 26.4428C168.16 26.077 167.761 25.3955 167.429 24.3981C166.498 20.8737 164.985 18.4632 162.89 17.1665C160.796 15.8701 158.219 15.2215 155.16 15.2215C151.503 15.2215 148.61 16.2353 146.483 18.2634C144.355 20.2915 143.191 23.6664 142.992 28.3878C142.792 33.8402 142.792 39.4259 142.992 45.1447C143.191 49.8657 144.355 53.2404 146.483 55.2685C148.61 57.2966 151.503 58.3108 155.16 58.3108C158.219 58.3108 160.812 57.6459 162.94 56.3159C165.068 54.9859 166.564 52.5917 167.429 49.1342C167.695 48.1368 168.077 47.4552 168.576 47.0897C169.074 46.7238 169.756 46.5408 170.62 46.5408H184.086C184.684 46.5408 185.2 46.7405 185.632 47.1396C186.064 47.5383 186.247 48.0372 186.18 48.6355C186.114 52.3594 185.299 55.7004 183.737 58.6598C182.174 61.6188 179.996 64.1455 177.204 66.2401C174.411 68.3347 171.152 69.9308 167.429 71.028C163.705 72.1252 159.649 72.6736 155.26 72.6736Z" fill="#FEFEFE"/>
<path d="M199.147 71.6762C198.416 71.6762 197.817 71.4435 197.352 70.9782C196.886 70.5126 196.653 69.9143 196.653 69.1826V4.34956C196.653 3.61822 196.886 3.01954 197.352 2.55428C197.817 2.08865 198.416 1.85596 199.147 1.85596H211.715C212.446 1.85596 213.045 2.08865 213.51 2.55428C213.976 3.01954 214.208 3.61822 214.208 4.34956V26.4926L232.661 3.75104C232.927 3.3523 233.376 2.93638 234.007 2.50438C234.639 2.072 235.487 1.85596 236.551 1.85596H250.914C251.512 1.85596 252.011 2.072 252.41 2.50438C252.809 2.93638 253.008 3.41886 253.008 3.95064C253.008 4.41628 252.875 4.81509 252.609 5.14769L228.771 35.2699L254.505 68.3848C254.77 68.6509 254.903 69.0498 254.903 69.5816C254.903 70.1137 254.687 70.5957 254.255 71.0281C253.823 71.4601 253.341 71.6762 252.809 71.6762H237.947C236.75 71.6762 235.836 71.4102 235.204 70.8784C234.573 70.3462 234.157 69.9474 233.957 69.6814L214.208 45.045V69.1826C214.208 69.9143 213.976 70.5126 213.51 70.9782C213.045 71.4435 212.446 71.6762 211.715 71.6762H199.147Z" fill="#FEFEFE"/>
<path d="M111.572 70.978C111.373 70.978 111.124 70.9114 110.824 70.7783C110.525 70.6453 110.209 70.5125 109.877 70.3794L73.9692 45.9424C73.0383 45.2772 72.3236 44.629 71.8247 43.9974C71.3261 43.3655 71.0767 42.5512 71.0767 41.5537V38.4616C71.0767 37.4642 71.3261 36.6662 71.8247 36.0675C72.3236 35.4692 73.0383 34.8373 73.9692 34.1724L109.877 9.73573C110.209 9.53617 110.525 9.36976 110.824 9.23672C111.124 9.10368 111.373 9.03711 111.572 9.03711C112.171 9.03711 112.67 9.23681 113.069 9.63593C113.468 10.0347 113.667 10.5335 113.667 11.1318V21.8045C113.667 22.8685 113.368 23.6828 112.769 24.2482C112.171 24.8133 111.539 25.3287 110.874 25.794L89.1304 40.0573L110.874 54.4207C111.539 54.8194 112.171 55.285 112.769 55.8167C113.368 56.3489 113.667 57.1469 113.667 58.2108V68.9831C113.667 69.5814 113.468 70.0639 113.069 70.4293C112.67 70.7952 112.171 70.978 111.572 70.978Z" stroke="#FEFEFE" stroke-width="2.66683" stroke-miterlimit="22.9256" stroke-linecap="round" stroke-linejoin="round"/>
<path d="M74.7883 168.951C74.2565 168.951 73.7909 168.768 73.3921 168.402C72.993 168.037 72.7935 167.554 72.7935 166.956V156.183C72.7935 155.12 73.0928 154.322 73.6911 153.79C74.2898 153.258 74.9213 152.792 75.5865 152.393L97.2307 138.03L75.5865 123.767C74.9213 123.368 74.2898 122.869 73.6911 122.271C73.0928 121.672 72.7935 120.874 72.7935 119.877V109.105C72.7935 108.506 72.993 108.024 73.3921 107.658C73.7909 107.293 74.2565 107.11 74.7883 107.11C75.0543 107.11 75.337 107.176 75.6364 107.309C75.9353 107.443 76.218 107.575 76.4841 107.708L112.491 132.145C113.489 132.81 114.22 133.442 114.686 134.04C115.151 134.639 115.384 135.47 115.384 136.534V139.526C115.384 140.524 115.151 141.338 114.686 141.97C114.22 142.602 113.489 143.25 112.491 143.915L76.4841 168.352C76.218 168.485 75.9353 168.618 75.6364 168.751C75.337 168.884 75.0543 168.951 74.7883 168.951Z" fill="#FEFEFE"/>
<path d="M127.752 169.649C127.02 169.649 126.422 169.416 125.956 168.951C125.491 168.485 125.258 167.887 125.258 167.155V102.322C125.258 101.591 125.491 100.992 125.956 100.527C126.422 100.061 127.02 99.8286 127.752 99.8286H173.534C174.265 99.8286 174.88 100.061 175.379 100.527C175.878 100.992 176.127 101.591 176.127 102.322V112.396C176.127 113.127 175.878 113.726 175.379 114.191C174.88 114.657 174.265 114.89 173.534 114.89H142.813V129.552H171.539C172.27 129.552 172.885 129.801 173.384 130.3C173.883 130.799 174.132 131.414 174.132 132.145V142.119C174.132 142.785 173.883 143.367 173.384 143.865C172.885 144.364 172.27 144.613 171.539 144.613H142.813V167.155C142.813 167.887 142.58 168.485 142.115 168.951C141.649 169.416 141.051 169.649 140.319 169.649H127.752Z" stroke="#FEFEFE" stroke-width="2.66683" stroke-miterlimit="22.9256" stroke-linecap="round" stroke-linejoin="round"/>
<path d="M189.293 169.649C188.562 169.649 187.963 169.416 187.498 168.951C187.033 168.485 186.8 167.887 186.8 167.155V102.322C186.8 101.591 187.033 100.992 187.498 100.527C187.963 100.061 188.562 99.8286 189.293 99.8286H235.874C236.605 99.8286 237.204 100.061 237.669 100.527C238.134 100.992 238.367 101.591 238.367 102.322V111.698C238.367 112.429 238.134 113.028 237.669 113.493C237.204 113.959 236.605 114.191 235.874 114.191H204.056V127.657H233.679C234.41 127.657 235.009 127.906 235.474 128.405C235.94 128.904 236.173 129.519 236.173 130.25V138.928C236.173 139.593 235.94 140.175 235.474 140.673C235.009 141.172 234.41 141.421 233.679 141.421H204.056V155.286H236.671C237.403 155.286 238.001 155.519 238.467 155.984C238.932 156.449 239.165 157.048 239.165 157.779V167.155C239.165 167.887 238.932 168.485 238.467 168.951C238.001 169.416 237.403 169.649 236.671 169.649H189.293Z" stroke="#FEFEFE" stroke-width="2.66683" stroke-miterlimit="22.9256" stroke-linecap="round" stroke-linejoin="round"/>
<path d="M276.569 170.647C269.919 170.647 264.4 169.699 260.011 167.804C255.623 165.909 252.298 163.432 250.037 160.373C247.776 157.314 246.579 154.056 246.446 150.598C246.446 150.066 246.662 149.584 247.095 149.152C247.527 148.72 248.042 148.503 248.641 148.503H261.208C262.139 148.503 262.854 148.67 263.353 149.002C263.851 149.335 264.3 149.767 264.7 150.299C265.231 151.297 265.979 152.261 266.943 153.192C267.908 154.123 269.171 154.87 270.734 155.436C272.296 156.001 274.241 156.284 276.569 156.284C280.426 156.284 283.335 155.685 285.296 154.488C287.258 153.291 288.239 151.662 288.239 149.601C288.239 148.138 287.707 146.924 286.643 145.96C285.579 144.996 283.867 144.132 281.506 143.367C279.146 142.602 276.004 141.821 272.081 141.023C267.027 139.959 262.721 138.579 259.164 136.884C255.606 135.188 252.896 132.96 251.035 130.201C249.173 127.441 248.242 124 248.242 119.877C248.242 115.821 249.389 112.197 251.683 109.005C253.977 105.813 257.185 103.32 261.308 101.525C265.431 99.7291 270.318 98.8315 275.97 98.8315C280.558 98.8315 284.598 99.4302 288.089 100.627C291.58 101.824 294.523 103.42 296.917 105.415C299.31 107.41 301.123 109.521 302.352 111.748C303.583 113.976 304.231 116.153 304.298 118.281C304.298 118.814 304.098 119.295 303.699 119.728C303.3 120.16 302.801 120.376 302.203 120.376H289.037C288.305 120.376 287.674 120.243 287.142 119.977C286.61 119.711 286.144 119.279 285.745 118.68C285.346 117.217 284.299 115.938 282.603 114.84C280.908 113.743 278.697 113.194 275.97 113.194C273.045 113.194 270.767 113.71 269.138 114.741C267.509 115.771 266.694 117.351 266.694 119.478C266.694 120.808 267.143 121.972 268.041 122.969C268.939 123.967 270.435 124.831 272.529 125.563C274.624 126.294 277.5 127.059 281.157 127.857C287.208 128.987 292.095 130.4 295.819 132.096C299.543 133.792 302.269 135.986 303.998 138.679C305.727 141.372 306.591 144.747 306.591 148.803C306.591 153.325 305.312 157.231 302.751 160.523C300.191 163.814 296.651 166.324 292.129 168.054C287.607 169.782 282.421 170.647 276.569 170.647Z" stroke="#FEFEFE" stroke-width="2.66683" stroke-miterlimit="22.9256" stroke-linecap="round" stroke-linejoin="round"/>
<path d="M333.722 169.649C332.991 169.649 332.392 169.416 331.927 168.951C331.461 168.485 331.228 167.887 331.228 167.155V115.488H313.474C312.743 115.488 312.144 115.239 311.679 114.74C311.213 114.241 310.98 113.66 310.98 112.995V102.322C310.98 101.591 311.213 100.992 311.679 100.527C312.144 100.061 312.743 99.8286 313.474 99.8286H367.136C367.867 99.8286 368.466 100.061 368.931 100.527C369.397 100.992 369.63 101.591 369.63 102.322V112.995C369.63 113.66 369.397 114.241 368.931 114.74C368.466 115.239 367.867 115.488 367.136 115.488H349.382V167.155C349.382 167.887 349.149 168.485 348.684 168.951C348.218 169.416 347.62 169.649 346.888 169.649H333.722Z" stroke="#FEFEFE" stroke-width="2.66683" stroke-miterlimit="22.9256" stroke-linecap="round" stroke-linejoin="round"/>
</svg>
