<svg width="780" height="780" viewBox="0 0 780 780" fill="none" xmlns="http://www.w3.org/2000/svg">
<rect width="780" height="780" fill="black"/>
<path d="M780 390C780 605.391 605.391 780 390 780C174.609 780 0 605.391 0 390C0 174.609 174.609 0 390 0C605.391 0 780 174.609 780 390Z" fill="black"/>
<path d="M237.591 596.075H615.276C628.138 596.075 638.56 608.843 638.56 624.598C638.56 640.347 628.138 653.115 615.276 653.115H173.564C149.406 653.115 136.657 618.076 152.815 596.075L421.364 230.251C429.276 219.477 442.522 217.678 452.164 226.075C463.51 235.949 465.297 255.724 455.994 268.397L230.251 575.904C224.54 583.684 229.05 596.075 237.591 596.075Z" fill="white"/>
<path d="M546.569 188.779H186.545C173.689 188.779 163.261 176.011 163.261 160.256C163.261 144.501 173.689 131.733 186.545 131.733H610.603C634.755 131.733 647.504 166.778 631.346 188.779L362.796 554.596C354.884 565.377 341.638 567.169 331.996 558.773C320.65 548.904 318.863 529.124 328.166 516.457L553.909 208.95C559.62 201.17 555.11 188.779 546.569 188.779Z" fill="white"/>
</svg>
